# This file uses centimeters as units for non-parametric coordinates.

mtllib silla3.mtl
g default
v 1.531868 -0.128440 0.525578
v 1.447838 -0.125589 0.666298
v 1.552111 0.326180 0.486260
v 1.468081 0.329032 0.626980
v 1.664217 0.326375 0.598166
v 1.580187 0.329226 0.738885
v 1.643975 -0.128246 0.637484
v 1.559945 -0.125394 0.778203
v 1.840530 -0.124448 -0.036227
v 1.756212 -0.118063 0.104156
v 1.901520 1.133810 -0.067427
v 1.817201 1.140194 0.072956
v 2.013247 1.130149 0.045009
v 1.928929 1.136533 0.185393
v 1.952258 -0.128109 0.076209
v 1.867940 -0.121724 0.216592
v 1.999224 -0.116325 0.952553
v 1.915187 -0.116325 1.093452
v 1.978762 0.338496 0.932146
v 1.894725 0.338496 1.073045
v 2.090862 0.340461 1.043945
v 2.006825 0.340461 1.184844
v 2.111324 -0.114360 1.064352
v 2.027288 -0.114360 1.205251
v 1.840295 0.249301 0.000290
v 1.462130 0.249301 0.634336
v 1.840295 0.354301 0.000290
v 1.462130 0.354301 0.634336
v 2.401019 0.354301 0.559505
v 2.022854 0.354301 1.193551
v 2.401019 0.249301 0.559505
v 2.022854 0.249301 1.193551
v 2.306651 -0.111435 0.418344
v 2.222628 -0.107900 0.559185
v 2.316247 1.148108 0.376851
v 2.232224 1.151643 0.517692
v 2.428397 1.149426 0.488672
v 2.344374 1.152961 0.629513
v 2.418801 -0.110117 0.530166
v 2.334777 -0.106582 0.671007
v 1.840637 0.327421 -0.005500
v 1.754037 0.340448 0.131789
v 1.906375 1.128557 -0.059031
v 1.819775 1.141585 0.078258
v 2.454288 1.107352 0.520331
v 2.367687 1.120380 0.657620
v 2.388549 0.306216 0.573862
v 2.301949 0.319244 0.711151
vt 0.375000 0.000000
vt 0.625000 0.000000
vt 0.625000 0.250000
vt 0.375000 0.250000
vt 0.625000 0.500000
vt 0.375000 0.500000
vt 0.625000 0.750000
vt 0.375000 0.750000
vt 0.625000 1.000000
vt 0.375000 1.000000
vt 0.875000 0.000000
vt 0.875000 0.250000
vt 0.125000 0.000000
vt 0.125000 0.250000
vt 0.375000 0.000000
vt 0.625000 0.000000
vt 0.625000 0.250000
vt 0.375000 0.250000
vt 0.625000 0.500000
vt 0.375000 0.500000
vt 0.625000 0.750000
vt 0.375000 0.750000
vt 0.625000 1.000000
vt 0.375000 1.000000
vt 0.875000 0.000000
vt 0.875000 0.250000
vt 0.125000 0.000000
vt 0.125000 0.250000
vt 0.375000 0.000000
vt 0.625000 0.000000
vt 0.625000 0.250000
vt 0.375000 0.250000
vt 0.625000 0.500000
vt 0.375000 0.500000
vt 0.625000 0.750000
vt 0.375000 0.750000
vt 0.625000 1.000000
vt 0.375000 1.000000
vt 0.875000 0.000000
vt 0.875000 0.250000
vt 0.125000 0.000000
vt 0.125000 0.250000
vt 0.375000 0.000000
vt 0.625000 0.000000
vt 0.625000 0.250000
vt 0.375000 0.250000
vt 0.625000 0.500000
vt 0.375000 0.500000
vt 0.625000 0.750000
vt 0.375000 0.750000
vt 0.625000 1.000000
vt 0.375000 1.000000
vt 0.875000 0.000000
vt 0.875000 0.250000
vt 0.125000 0.000000
vt 0.125000 0.250000
vt 0.375000 0.000000
vt 0.625000 0.000000
vt 0.625000 0.250000
vt 0.375000 0.250000
vt 0.625000 0.500000
vt 0.375000 0.500000
vt 0.625000 0.750000
vt 0.375000 0.750000
vt 0.625000 1.000000
vt 0.375000 1.000000
vt 0.875000 0.000000
vt 0.875000 0.250000
vt 0.125000 0.000000
vt 0.125000 0.250000
vt 0.375000 0.000000
vt 0.625000 0.000000
vt 0.625000 0.250000
vt 0.375000 0.250000
vt 0.625000 0.500000
vt 0.375000 0.500000
vt 0.625000 0.750000
vt 0.375000 0.750000
vt 0.625000 1.000000
vt 0.375000 1.000000
vt 0.875000 0.000000
vt 0.875000 0.250000
vt 0.125000 0.000000
vt 0.125000 0.250000
vn -0.858611 -0.006100 -0.512591
vn -0.858611 -0.006100 -0.512591
vn -0.858611 -0.006100 -0.512591
vn -0.858611 -0.006100 -0.512591
vn 0.011585 0.999844 -0.013344
vn 0.011585 0.999844 -0.013344
vn 0.011585 0.999844 -0.013344
vn 0.011585 0.999844 -0.013344
vn 0.858611 0.006100 0.512591
vn 0.858611 0.006100 0.512591
vn 0.858611 0.006100 0.512591
vn 0.858611 0.006100 0.512591
vn -0.011585 -0.999844 0.013344
vn -0.011585 -0.999844 0.013344
vn -0.011585 -0.999844 0.013344
vn -0.011585 -0.999844 0.013344
vn -0.703539 0.092267 0.704642
vn -0.703539 0.092267 0.704642
vn -0.703539 0.092267 0.704642
vn -0.703539 0.092267 0.704642
vn 0.703539 -0.092267 -0.704642
vn 0.703539 -0.092267 -0.704642
vn 0.703539 -0.092267 -0.704642
vn 0.703539 -0.092267 -0.704642
vn -0.856324 0.028721 -0.515639
vn -0.856324 0.028721 -0.515639
vn -0.856324 0.028721 -0.515639
vn -0.856324 0.028721 -0.515639
vn 0.048885 0.998675 -0.016059
vn 0.048885 0.998675 -0.016059
vn 0.048885 0.998675 -0.016059
vn 0.048885 0.998675 -0.016059
vn 0.856325 -0.028721 0.515638
vn 0.856325 -0.028721 0.515638
vn 0.856325 -0.028721 0.515638
vn 0.856325 -0.028721 0.515638
vn -0.048886 -0.998675 0.016058
vn -0.048886 -0.998675 0.016058
vn -0.048886 -0.998675 0.016058
vn -0.048886 -0.998675 0.016058
vn -0.707543 0.051771 0.704771
vn -0.707543 0.051771 0.704771
vn -0.707543 0.051771 0.704771
vn -0.707543 0.051771 0.704771
vn 0.707543 -0.051771 -0.704772
vn 0.707543 -0.051771 -0.704772
vn 0.707543 -0.051771 -0.704772
vn 0.707543 -0.051771 -0.704772
vn -0.857216 -0.061506 -0.511271
vn -0.857216 -0.061506 -0.511271
vn -0.857216 -0.061506 -0.511271
vn -0.857216 -0.061506 -0.511271
vn -0.010990 0.999918 -0.006555
vn -0.010990 0.999918 -0.006555
vn -0.010990 0.999918 -0.006555
vn -0.010990 0.999918 -0.006555
vn 0.857216 0.061506 0.511271
vn 0.857216 0.061506 0.511271
vn 0.857216 0.061506 0.511271
vn 0.857216 0.061506 0.511271
vn 0.010990 -0.999918 0.006555
vn 0.010990 -0.999918 0.006555
vn 0.010990 -0.999918 0.006555
vn 0.010990 -0.999918 0.006555
vn -0.706153 -0.000000 0.708059
vn -0.706153 -0.000000 0.708059
vn -0.706153 -0.000000 0.708059
vn -0.706153 -0.000000 0.708059
vn 0.706153 0.000000 -0.708059
vn 0.706153 0.000000 -0.708059
vn 0.706153 0.000000 -0.708059
vn 0.706153 0.000000 -0.708059
vn -0.858842 0.000000 -0.512241
vn -0.858842 0.000000 -0.512241
vn -0.858842 0.000000 -0.512241
vn -0.858842 0.000000 -0.512241
vn 0.000000 1.000000 0.000000
vn 0.000000 1.000000 0.000000
vn 0.000000 1.000000 0.000000
vn 0.000000 1.000000 0.000000
vn 0.858842 0.000000 0.512240
vn 0.858842 0.000000 0.512240
vn 0.858842 0.000000 0.512240
vn 0.858842 0.000000 0.512240
vn 0.000000 -1.000000 0.000000
vn 0.000000 -1.000000 0.000000
vn 0.000000 -1.000000 0.000000
vn 0.000000 -1.000000 0.000000
vn -0.706153 0.000000 0.708059
vn -0.706153 0.000000 0.708059
vn -0.706153 0.000000 0.708059
vn -0.706153 0.000000 0.708059
vn 0.706153 0.000000 -0.708059
vn 0.706153 0.000000 -0.708059
vn 0.706153 0.000000 -0.708059
vn 0.706153 0.000000 -0.708059
vn -0.858854 -0.010327 -0.512117
vn -0.858854 -0.010327 -0.512117
vn -0.858854 -0.010327 -0.512117
vn -0.858854 -0.010327 -0.512117
vn 0.008321 0.999763 -0.020129
vn 0.008321 0.999763 -0.020129
vn 0.008321 0.999763 -0.020129
vn 0.008321 0.999763 -0.020129
vn 0.858853 0.010327 0.512118
vn 0.858853 0.010327 0.512118
vn 0.858853 0.010327 0.512118
vn 0.858853 0.010327 0.512118
vn -0.008321 -0.999763 0.020128
vn -0.008321 -0.999763 0.020128
vn -0.008321 -0.999763 0.020128
vn -0.008321 -0.999763 0.020128
vn -0.705948 0.028692 0.707683
vn -0.705948 0.028692 0.707683
vn -0.705948 0.028692 0.707683
vn -0.705948 0.028692 0.707683
vn 0.705947 -0.028692 -0.707683
vn 0.705947 -0.028692 -0.707683
vn 0.705947 -0.028692 -0.707683
vn 0.705947 -0.028692 -0.707683
vn -0.843882 0.033465 -0.535485
vn -0.843882 0.033465 -0.535485
vn -0.843882 0.033465 -0.535485
vn -0.843882 0.033465 -0.535485
vn 0.083044 0.995656 -0.042095
vn 0.083044 0.995656 -0.042095
vn 0.083044 0.995656 -0.042095
vn 0.083044 0.995656 -0.042095
vn 0.843882 -0.033466 0.535485
vn 0.843882 -0.033466 0.535485
vn 0.843882 -0.033466 0.535485
vn 0.843882 -0.033466 0.535485
vn -0.083044 -0.995656 0.042095
vn -0.083044 -0.995656 0.042095
vn -0.083044 -0.995656 0.042095
vn -0.083044 -0.995656 0.042095
vn -0.720621 0.104926 0.685343
vn -0.720621 0.104926 0.685343
vn -0.720621 0.104925 0.685343
vn -0.720621 0.104926 0.685343
vn 0.720621 -0.104925 -0.685343
vn 0.720621 -0.104925 -0.685343
vn 0.720621 -0.104925 -0.685343
vn 0.720621 -0.104925 -0.685343
s off
g polySurface29
usemtl lambert2SG
f 1/1/1 2/2/2 4/3/3 3/4/4
f 3/4/5 4/3/6 6/5/7 5/6/8
f 5/6/9 6/5/10 8/7/11 7/8/12
f 7/8/13 8/7/14 2/9/15 1/10/16
f 2/2/17 8/11/18 6/12/19 4/3/20
f 7/13/21 1/1/22 3/4/23 5/14/24
f 9/15/25 10/16/26 12/17/27 11/18/28
f 11/18/29 12/17/30 14/19/31 13/20/32
f 13/20/33 14/19/34 16/21/35 15/22/36
f 15/22/37 16/21/38 10/23/39 9/24/40
f 10/16/41 16/25/42 14/26/43 12/17/44
f 15/27/45 9/15/46 11/18/47 13/28/48
f 17/29/49 18/30/50 20/31/51 19/32/52
f 19/32/53 20/31/54 22/33/55 21/34/56
f 21/34/57 22/33/58 24/35/59 23/36/60
f 23/36/61 24/35/62 18/37/63 17/38/64
f 18/30/65 24/39/66 22/40/67 20/31/68
f 23/41/69 17/29/70 19/32/71 21/42/72
f 25/43/73 26/44/74 28/45/75 27/46/76
f 27/46/77 28/45/78 30/47/79 29/48/80
f 29/48/81 30/47/82 32/49/83 31/50/84
f 31/50/85 32/49/86 26/51/87 25/52/88
f 26/44/89 32/53/90 30/54/91 28/45/92
f 31/55/93 25/43/94 27/46/95 29/56/96
f 33/57/97 34/58/98 36/59/99 35/60/100
f 35/60/101 36/59/102 38/61/103 37/62/104
f 37/62/105 38/61/106 40/63/107 39/64/108
f 39/64/109 40/63/110 34/65/111 33/66/112
f 34/58/113 40/67/114 38/68/115 36/59/116
f 39/69/117 33/57/118 35/60/119 37/70/120
f 41/71/121 42/72/122 44/73/123 43/74/124
f 43/74/125 44/73/126 46/75/127 45/76/128
f 45/76/129 46/75/130 48/77/131 47/78/132
f 47/78/133 48/77/134 42/79/135 41/80/136
f 42/72/137 48/81/138 46/82/139 44/73/140
f 47/83/141 41/71/142 43/74/143 45/84/144
